<?xml version="1.0" encoding="UTF-8" standalone="no"?>
<!-- Created with Inkscape (http://www.inkscape.org/) -->

<svg
   width="512.00098"
   height="512.00098"
   viewBox="0 0 135.46692 135.46693"
   version="1.1"
   id="svg5"
   inkscape:version="1.1 (c68e22c387, 2021-05-23)"
   sodipodi:docname="OrdoApp_icon.svg"
   xmlns:inkscape="http://www.inkscape.org/namespaces/inkscape"
   xmlns:sodipodi="http://sodipodi.sourceforge.net/DTD/sodipodi-0.dtd"
   xmlns="http://www.w3.org/2000/svg"
   xmlns:svg="http://www.w3.org/2000/svg">
  <sodipodi:namedview
     id="namedview7"
     pagecolor="#ffffff"
     bordercolor="#666666"
     borderopacity="1.0"
     inkscape:pageshadow="2"
     inkscape:pageopacity="0.0"
     inkscape:pagecheckerboard="0"
     inkscape:document-units="mm"
     showgrid="false"
     units="px"
     width="512.001px"
     inkscape:zoom="1"
     inkscape:cx="385"
     inkscape:cy="393.5"
     inkscape:window-width="1920"
     inkscape:window-height="1017"
     inkscape:window-x="1912"
     inkscape:window-y="-4"
     inkscape:window-maximized="1"
     inkscape:current-layer="layer1" />
  <defs
     id="defs2" />
  <g
     inkscape:label="Livello 1"
     inkscape:groupmode="layer"
     id="layer1">
    <path
       d="m 135.4668,38.100131 v 76.199999 c 0,7.01146 -5.68855,12.7 -12.7,12.7 H 12.700128 c -7.0114605,0 -12.70000047559,-5.68854 -12.70000047559,-12.7 V 21.166798 C 1.2752441e-4,14.155339 5.6886675,8.4667975 12.700128,8.4667975 h 42.33333 L 71.966798,25.400131 H 122.7668 c 7.01145,0 12.7,5.688542 12.7,12.7 z"
       id="path823"
       style="fill:#333333;fill-opacity:1;stroke-width:0.264583" />
    <path
       d="m 6.2210017,42.962595 c 1.128337,-2.382189 3.527579,-3.89983 6.1638443,-3.89983 h 73.665359 c 2.643081,0 5.030392,1.517641 6.155835,3.89983 1.142497,2.382187 0.784397,5.200909 -1.023136,7.240351 L 60.13092,88.326472 v 21.673308 c 0,2.06331 -1.159549,3.95611 -3.018237,4.87692 -1.841635,0.92082 -4.058413,0.73324 -5.712475,-0.51157 l -10.913385,-8.18504 c -1.381229,-1.02312 -2.18268,-2.64308 -2.18268,-4.36535 V 88.326472 L 7.1058367,50.202946 c -1.668897,-2.039442 -2.013352,-4.858164 -0.884668,-7.240351 z"
       id="path833"
       style="fill:#ffffff;fill-opacity:1;stroke-width:0.170521" />
    <path
       d="m 128.76111,76.521246 c 0.41811,1.089622 0.0633,2.318611 -0.79821,3.116815 l -5.48609,4.991973 c 0.13936,1.051609 0.21538,2.128554 0.21538,3.218168 0,1.089622 -0.076,2.166568 -0.21538,3.218177 l 5.48609,4.991973 c 0.86157,0.798212 1.21632,2.027201 0.79821,3.116814 -0.55748,1.507734 -1.22898,2.964774 -1.98918,4.345804 l -0.5955,1.02626 c -0.83622,1.3937 -1.77379,2.71138 -2.80006,3.9657 -0.7602,0.89958 -1.98919,1.21632 -3.10415,0.86156 l -7.05717,-2.25525 c -1.69777,1.30501 -3.68696,2.39462 -5.57479,3.23084 l -1.58375,7.23456 c -0.2534,1.1403 -1.14029,1.95117 -2.30593,2.25525 -1.74846,0.29142 -3.54759,0.44345 -5.498776,0.44345 -1.723115,0 -3.522247,-0.15203 -5.270706,-0.44345 -1.16564,-0.30408 -2.052538,-1.11495 -2.305934,-2.25525 l -1.583748,-7.23456 c -2.001857,-0.83622 -3.877015,-1.92583 -5.574793,-3.23084 l -7.052106,2.25525 c -1.12003,0.35476 -2.355353,0.038 -3.105408,-0.86156 -1.027535,-1.25432 -1.965113,-2.572 -2.801339,-3.9657 l -0.592956,-1.02626 c -0.769065,-1.38103 -1.438038,-2.83807 -1.999324,-4.345804 -0.410504,-1.089613 -0.0646,-2.318602 0.804546,-3.116814 l 5.481035,-4.991973 C 74.111704,90.01477 74.03948,88.937824 74.03948,87.848202 c 0,-1.089614 0.07226,-2.166559 0.211591,-3.218168 l -5.481035,-4.991973 c -0.869157,-0.798204 -1.21505,-2.014524 -0.804546,-3.116815 0.561286,-1.507722 1.231529,-2.964771 1.999324,-4.345795 L 70.5565,71.149178 c 0.837496,-1.393691 1.775074,-2.711374 2.802609,-3.959365 0.750055,-0.9059 1.985378,-1.220115 3.105408,-0.862824 l 7.052106,2.25019 c 1.697778,-1.310079 3.572936,-2.399701 5.574793,-3.227043 l 1.583748,-7.234555 c 0.253396,-1.150435 1.140294,-2.063939 2.305934,-2.257791 1.748459,-0.292549 3.547591,-0.444715 5.384736,-0.444715 1.837156,0 3.636286,0.152166 5.384746,0.444715 1.16564,0.193852 2.05253,1.107356 2.30593,2.257791 l 1.58375,7.234555 c 1.88783,0.827342 3.87702,1.916964 5.57479,3.227043 l 7.05717,-2.25019 c 1.11496,-0.357291 2.34395,-0.04307 3.10415,0.862824 1.02627,1.247991 1.96384,2.565674 2.80006,3.959365 l 0.5955,1.026273 c 0.7602,1.381024 1.4317,2.838073 1.98918,4.345795 z M 98.365834,97.984191 c 5.600126,0 10.135986,-4.535852 10.135986,-10.250011 0,-5.486106 -4.53586,-10.135988 -10.135986,-10.135988 -5.600129,0 -10.13598,4.649882 -10.13598,10.135988 0,5.714159 4.535851,10.250011 10.13598,10.250011 z"
       id="path1605"
       style="fill:#fbff0b;fill-opacity:1;stroke:#333333;stroke-width:2.39433;stroke-miterlimit:4;stroke-dasharray:none;stroke-opacity:1" />
  </g>
</svg>
