<?xml version="1.0" encoding="UTF-8" standalone="no"?>
<!-- Created with Inkscape (http://www.inkscape.org/) -->

<svg
   width="512.00098"
   height="512.00098"
   viewBox="0 0 135.46692 135.46693"
   version="1.1"
   id="svg5"
   inkscape:version="1.1 (c68e22c387, 2021-05-23)"
   sodipodi:docname="OrdoData_icon.svg"
   xmlns:inkscape="http://www.inkscape.org/namespaces/inkscape"
   xmlns:sodipodi="http://sodipodi.sourceforge.net/DTD/sodipodi-0.dtd"
   xmlns="http://www.w3.org/2000/svg"
   xmlns:svg="http://www.w3.org/2000/svg">
  <sodipodi:namedview
     id="namedview7"
     pagecolor="#ffffff"
     bordercolor="#666666"
     borderopacity="1.0"
     inkscape:pageshadow="2"
     inkscape:pageopacity="0.0"
     inkscape:pagecheckerboard="0"
     inkscape:document-units="mm"
     showgrid="false"
     units="px"
     width="512.001px"
     inkscape:zoom="1"
     inkscape:cx="385"
     inkscape:cy="233.5"
     inkscape:window-width="1920"
     inkscape:window-height="1017"
     inkscape:window-x="1912"
     inkscape:window-y="-4"
     inkscape:window-maximized="1"
     inkscape:current-layer="layer1" />
  <defs
     id="defs2" />
  <g
     inkscape:label="Livello 1"
     inkscape:groupmode="layer"
     id="layer1">
    <path
       d="m 135.4668,38.100131 v 76.199999 c 0,7.01146 -5.68855,12.7 -12.7,12.7 H 12.700128 c -7.0114605,0 -12.70000047559,-5.68854 -12.70000047559,-12.7 V 21.166798 C 1.2752441e-4,14.155339 5.6886675,8.4667975 12.700128,8.4667975 h 42.33333 L 71.966798,25.400131 H 122.7668 c 7.01145,0 12.7,5.688542 12.7,12.7 z"
       id="path823"
       style="fill:#333333;fill-opacity:1;stroke-width:0.264583" />
    <path
       d="m 6.2210017,42.962595 c 1.128337,-2.382189 3.527579,-3.89983 6.1638443,-3.89983 h 73.665359 c 2.643081,0 5.030392,1.517641 6.155835,3.89983 1.142497,2.382187 0.784397,5.200909 -1.023136,7.240351 L 60.13092,88.326472 v 21.673308 c 0,2.06331 -1.159549,3.95611 -3.018237,4.87692 -1.841635,0.92082 -4.058413,0.73324 -5.712475,-0.51157 l -10.913385,-8.18504 c -1.381229,-1.02312 -2.18268,-2.64308 -2.18268,-4.36535 V 88.326472 L 7.1058367,50.202946 c -1.668897,-2.039442 -2.013352,-4.858164 -0.884668,-7.240351 z"
       id="path833"
       style="fill:#ffffff;fill-opacity:1;stroke-width:0.170521" />
    <path
       d="m 129.28884,65.955085 v 6.013076 c 0,5.53704 -12.56483,10.021792 -28.06102,10.021792 -15.496192,0 -28.061017,-4.484752 -28.061017,-10.021792 v -6.013076 c 0,-5.534535 12.564825,-10.021793 28.061017,-10.021793 15.49619,0 28.06102,4.487258 28.06102,10.021793 z m -6.86492,16.874194 c 2.49291,-0.927018 4.99836,-2.117105 6.86492,-3.58279 v 12.765258 c 0,5.537039 -12.56483,10.021793 -28.06102,10.021793 -15.496192,0 -28.061017,-4.484754 -28.061017,-10.021793 V 79.246489 c 1.870316,1.465685 4.261762,2.655772 6.871186,3.58279 5.613461,2.004357 13.109763,3.169393 21.189831,3.169393 8.08007,0 15.57136,-1.165036 21.1961,-3.169393 z M 80.037989,102.87286 c 5.613461,2.00436 13.109763,3.1694 21.189831,3.1694 8.08007,0 15.57136,-1.16504 21.1961,-3.1694 2.49291,-0.92701 4.99836,-2.1171 6.86492,-3.582786 v 10.760896 c 0,5.53704 -12.56483,10.0218 -28.06102,10.0218 -15.496192,0 -28.061017,-4.48476 -28.061017,-10.0218 V 99.290074 c 1.870316,1.465686 4.261762,2.655776 6.871186,3.582786 z"
       id="path824-3"
       style="fill:#00ffe1;fill-opacity:1;stroke:#333333;stroke-width:2.36735;stroke-miterlimit:4;stroke-dasharray:none;stroke-opacity:1" />
  </g>
</svg>
