<?xml version="1.0" encoding="UTF-8" standalone="no"?>
<!-- Created with Inkscape (http://www.inkscape.org/) -->

<svg
   width="512.00098"
   height="512.00098"
   viewBox="0 0 135.46692 135.46693"
   version="1.1"
   id="svg5"
   inkscape:version="1.1 (c68e22c387, 2021-05-23)"
   sodipodi:docname="OrdoPdf_icon.svg"
   xmlns:inkscape="http://www.inkscape.org/namespaces/inkscape"
   xmlns:sodipodi="http://sodipodi.sourceforge.net/DTD/sodipodi-0.dtd"
   xmlns="http://www.w3.org/2000/svg"
   xmlns:svg="http://www.w3.org/2000/svg">
  <sodipodi:namedview
     id="namedview7"
     pagecolor="#ffffff"
     bordercolor="#666666"
     borderopacity="1.0"
     inkscape:pageshadow="2"
     inkscape:pageopacity="0.0"
     inkscape:pagecheckerboard="0"
     inkscape:document-units="mm"
     showgrid="false"
     units="px"
     width="512.001px"
     inkscape:zoom="1"
     inkscape:cx="385"
     inkscape:cy="233.5"
     inkscape:window-width="1920"
     inkscape:window-height="1017"
     inkscape:window-x="1912"
     inkscape:window-y="-4"
     inkscape:window-maximized="1"
     inkscape:current-layer="layer1" />
  <defs
     id="defs2" />
  <g
     inkscape:label="Livello 1"
     inkscape:groupmode="layer"
     id="layer1">
    <path
       d="m 135.4668,38.100131 v 76.199999 c 0,7.01146 -5.68855,12.7 -12.7,12.7 H 12.700128 c -7.0114605,0 -12.70000047559,-5.68854 -12.70000047559,-12.7 V 21.166798 C 1.2752441e-4,14.155339 5.6886675,8.4667975 12.700128,8.4667975 h 42.33333 L 71.966798,25.400131 H 122.7668 c 7.01145,0 12.7,5.688542 12.7,12.7 z"
       id="path823"
       style="fill:#333333;fill-opacity:1;stroke-width:0.264583" />
    <path
       d="m 6.2210017,42.962595 c 1.128337,-2.382189 3.527579,-3.89983 6.1638443,-3.89983 h 73.665359 c 2.643081,0 5.030392,1.517641 6.155835,3.89983 1.142497,2.382187 0.784397,5.200909 -1.023136,7.240351 L 60.13092,88.326472 v 21.673308 c 0,2.06331 -1.159549,3.95611 -3.018237,4.87692 -1.841635,0.92082 -4.058413,0.73324 -5.712475,-0.51157 l -10.913385,-8.18504 c -1.381229,-1.02312 -2.18268,-2.64308 -2.18268,-4.36535 V 88.326472 L 7.1058367,50.202946 c -1.668897,-2.039442 -2.013352,-4.858164 -0.884668,-7.240351 z"
       id="path833"
       style="fill:#ffffff;fill-opacity:1;stroke-width:0.170521" />
    <path
       d="m 92.367778,93.547931 h -0.995114 v -5.970715 h 0.995114 c 1.654382,0 2.98535,1.33097 2.98535,2.985357 0,1.654388 -1.330968,2.985358 -2.98535,2.985358 z M 105.3043,87.577216 h 0.99512 c 1.09463,0 1.99023,0.895612 1.99023,1.99024 V 97.5284 c 0,1.094635 -0.8956,1.990241 -1.99023,1.990241 h -0.99512 z m 3.98047,-31.843801 v 15.921904 c 0,2.201698 1.77877,3.980472 3.98047,3.980472 h 15.92186 v 35.824279 c 0,4.39096 -3.56998,7.96094 -7.96092,7.96094 H 89.382428 c -4.397172,0 -7.960933,-3.56998 -7.960933,-7.96094 V 63.694367 c 0,-4.39718 3.563761,-7.960952 7.960933,-7.960952 z M 89.382428,83.596743 c -1.099601,0 -1.990232,0.895607 -1.990232,1.990231 v 15.921906 c 0,1.09464 0.890631,1.99023 1.990232,1.99023 1.099605,0 1.990236,-0.89559 1.990236,-1.99023 V 97.5284 h 0.995114 c 3.84364,0 6.965821,-3.122175 6.965821,-6.965827 0,-3.843645 -3.122181,-6.96583 -6.965821,-6.96583 z m 11.941402,17.912137 c 0,1.09464 0.8956,1.99023 1.99023,1.99023 h 2.98536 c 3.29632,0 5.9707,-2.67438 5.9707,-5.97071 v -7.960944 c 0,-3.296329 -2.67438,-5.970713 -5.9707,-5.970713 h -2.98536 c -1.09463,0 -1.99023,0.895607 -1.99023,1.990231 z M 117.2457,83.596743 c -1.09462,0 -1.99022,0.895607 -1.99022,1.990231 v 15.921906 c 0,1.09464 0.8956,1.99023 1.99022,1.99023 1.09463,0 1.99024,-0.89559 1.99024,-1.99023 v -5.970709 h 3.98046 c 1.09463,0 1.99024,-0.895605 1.99024,-1.99024 0,-1.094636 -0.89561,-1.990241 -1.99024,-1.990241 h -3.98046 v -3.980474 h 3.98046 c 1.09463,0 1.99024,-0.895605 1.99024,-1.990242 0,-1.094624 -0.89561,-1.990231 -1.99024,-1.990231 z m -3.98046,-27.863328 15.92186,15.921904 h -15.92186 z"
       id="path824"
       style="fill:#ff0000;fill-opacity:1;stroke:#333333;stroke-width:5;stroke-miterlimit:4;stroke-dasharray:none;stroke-opacity:1;paint-order:markers stroke fill" />
  </g>
</svg>
