<?xml version="1.0" encoding="UTF-8" standalone="no"?>
<!-- Created with Inkscape (http://www.inkscape.org/) -->

<svg
   width="512.00098"
   height="512.00098"
   viewBox="0 0 135.46692 135.46693"
   version="1.1"
   id="svg5"
   inkscape:version="1.1 (c68e22c387, 2021-05-23)"
   sodipodi:docname="OrdoOfficeWord_icon.svg"
   xmlns:inkscape="http://www.inkscape.org/namespaces/inkscape"
   xmlns:sodipodi="http://sodipodi.sourceforge.net/DTD/sodipodi-0.dtd"
   xmlns="http://www.w3.org/2000/svg"
   xmlns:svg="http://www.w3.org/2000/svg">
  <sodipodi:namedview
     id="namedview7"
     pagecolor="#ffffff"
     bordercolor="#666666"
     borderopacity="1.0"
     inkscape:pageshadow="2"
     inkscape:pageopacity="0.0"
     inkscape:pagecheckerboard="0"
     inkscape:document-units="mm"
     showgrid="false"
     units="px"
     width="512.001px"
     inkscape:zoom="1"
     inkscape:cx="385"
     inkscape:cy="233.5"
     inkscape:window-width="1920"
     inkscape:window-height="1017"
     inkscape:window-x="1912"
     inkscape:window-y="-4"
     inkscape:window-maximized="1"
     inkscape:current-layer="layer1" />
  <defs
     id="defs2" />
  <g
     inkscape:label="Livello 1"
     inkscape:groupmode="layer"
     id="layer1">
    <path
       d="m 135.4668,38.100131 v 76.199999 c 0,7.01146 -5.68855,12.7 -12.7,12.7 H 12.700128 c -7.0114605,0 -12.70000047559,-5.68854 -12.70000047559,-12.7 V 21.166798 C 1.2752441e-4,14.155339 5.6886675,8.4667975 12.700128,8.4667975 h 42.33333 L 71.966798,25.400131 H 122.7668 c 7.01145,0 12.7,5.688542 12.7,12.7 z"
       id="path823"
       style="fill:#333333;fill-opacity:1;stroke-width:0.264583" />
    <path
       d="m 6.2210017,42.962595 c 1.128337,-2.382189 3.527579,-3.89983 6.1638443,-3.89983 h 73.665359 c 2.643081,0 5.030392,1.517641 6.155835,3.89983 1.142497,2.382187 0.784397,5.200909 -1.023136,7.240351 L 60.13092,88.326472 v 21.673308 c 0,2.06331 -1.159549,3.95611 -3.018237,4.87692 -1.841635,0.92082 -4.058413,0.73324 -5.712475,-0.51157 l -10.913385,-8.18504 c -1.381229,-1.02312 -2.18268,-2.64308 -2.18268,-4.36535 V 88.326472 L 7.1058367,50.202946 c -1.668897,-2.039442 -2.013352,-4.858164 -0.884668,-7.240351 z"
       id="path833"
       style="fill:#ffffff;fill-opacity:1;stroke-width:0.170521" />
    <path
       d="M 108.93364,71.055267 V 54.907866 H 86.730976 c -3.34428,0 -6.05528,2.710997 -6.05528,6.055275 V 113.4422 c 0,3.34302 2.711,6.05528 6.05528,6.05528 h 36.331634 c 3.34429,0 6.05528,-2.711 6.05528,-6.05528 V 75.092118 h -16.03386 c -2.34642,0 -4.15039,-1.803968 -4.15039,-4.036851 z m 7.25372,14.128977 h 2.94816 c 0.97351,0 1.69421,0.905767 1.47471,1.854428 l -5.35639,23.211898 c -0.15139,0.68122 -0.76953,1.17321 -1.46337,1.17321 h -3.69119 c -0.68449,0 -1.28422,-0.45932 -1.46209,-1.12061 l -3.74039,-13.878821 -3.73536,13.763141 c -0.28889,0.78214 -0.78087,1.23629 -1.462087,1.23629 h -3.696247 c -0.70493,0 -1.31702,-0.48682 -1.4747,-1.17384 l -5.3564,-23.2119 c -0.2132,-0.945505 0.50713,-1.853796 1.47976,-1.853796 h 2.94816 c 0.70493,0 1.31702,0.486818 1.47471,1.173335 l 2.98474,12.955641 3.507014,-13.006227 c 0.17661,-0.668604 0.78214,-1.122749 1.46336,-1.122749 h 3.73534 c 0.68451,0 1.28423,0.459317 1.4621,1.120604 l 3.50702,13.008372 2.98979,-12.955767 c 0.15138,-0.681218 0.65598,-1.173209 1.46336,-1.173209 z m -3.21687,-30.276378 v 16.147401 h 16.1474 z"
       id="path824-2"
       style="fill:#00549c;fill-opacity:1;stroke:#333333;stroke-width:5;stroke-miterlimit:4;stroke-dasharray:none;stroke-opacity:1;paint-order:stroke fill markers" />
  </g>
</svg>
