<?xml version="1.0" encoding="UTF-8" standalone="no"?>
<!-- Created with Inkscape (http://www.inkscape.org/) -->

<svg
   width="512.00098"
   height="512.00098"
   viewBox="0 0 135.46692 135.46693"
   version="1.1"
   id="svg5"
   inkscape:version="1.1 (c68e22c387, 2021-05-23)"
   sodipodi:docname="OrdoArchive_icon.svg"
   xmlns:inkscape="http://www.inkscape.org/namespaces/inkscape"
   xmlns:sodipodi="http://sodipodi.sourceforge.net/DTD/sodipodi-0.dtd"
   xmlns="http://www.w3.org/2000/svg"
   xmlns:svg="http://www.w3.org/2000/svg">
  <sodipodi:namedview
     id="namedview7"
     pagecolor="#ffffff"
     bordercolor="#666666"
     borderopacity="1.0"
     inkscape:pageshadow="2"
     inkscape:pageopacity="0.0"
     inkscape:pagecheckerboard="0"
     inkscape:document-units="mm"
     showgrid="false"
     units="px"
     width="512.001px"
     inkscape:zoom="1"
     inkscape:cx="385"
     inkscape:cy="233.5"
     inkscape:window-width="1920"
     inkscape:window-height="1017"
     inkscape:window-x="1912"
     inkscape:window-y="-4"
     inkscape:window-maximized="1"
     inkscape:current-layer="layer1" />
  <defs
     id="defs2" />
  <g
     inkscape:label="Livello 1"
     inkscape:groupmode="layer"
     id="layer1">
    <path
       d="m 135.4668,38.100131 v 76.199999 c 0,7.01146 -5.68855,12.7 -12.7,12.7 H 12.700128 c -7.0114605,0 -12.70000047559,-5.68854 -12.70000047559,-12.7 V 21.166798 C 1.2752441e-4,14.155339 5.6886675,8.4667975 12.700128,8.4667975 h 42.33333 L 71.966798,25.400131 H 122.7668 c 7.01145,0 12.7,5.688542 12.7,12.7 z"
       id="path823"
       style="fill:#333333;fill-opacity:1;stroke-width:0.264583" />
    <path
       d="m 6.2210017,42.962595 c 1.128337,-2.382189 3.527579,-3.89983 6.1638443,-3.89983 h 73.665359 c 2.643081,0 5.030392,1.517641 6.155835,3.89983 1.142497,2.382187 0.784397,5.200909 -1.023136,7.240351 L 60.13092,88.326472 v 21.673308 c 0,2.06331 -1.159549,3.95611 -3.018237,4.87692 -1.841635,0.92082 -4.058413,0.73324 -5.712475,-0.51157 l -10.913385,-8.18504 c -1.381229,-1.02312 -2.18268,-2.64308 -2.18268,-4.36535 V 88.326472 L 7.1058367,50.202946 c -1.668897,-2.039442 -2.013352,-4.858164 -0.884668,-7.240351 z"
       id="path833"
       style="fill:#ffffff;fill-opacity:1;stroke-width:0.170521" />
    <path
       d="m 113.01114,53.217722 v 16.985519 h 16.98552 z m -4.24638,16.985519 V 53.217722 H 85.409688 c -3.51786,0 -6.36957,2.851709 -6.36957,6.369569 v 55.202919 c 0,3.51653 2.85171,6.36957 6.36957,6.36957 h 38.217402 c 3.51786,0 6.36957,-2.85171 6.36957,-6.36957 V 74.449621 h -16.86609 c -2.46821,0 -4.36581,-1.897601 -4.36581,-4.24638 z M 91.779258,57.464102 H 100.272 v 4.246379 h -8.492742 z m 0,8.492759 H 100.272 v 4.24638 h -8.492742 z m 0,8.49276 H 100.272 v 4.24638 h -8.492742 z m 4.28619,33.851589 c -5.38229,0 -9.38981,-4.83689 -8.3375,-10.012158 l 4.05131,-15.346671 H 100.272 l 4.10572,15.512548 c 1.02975,5.148721 -2.97777,9.846281 -8.312272,9.846281 z m 2.083374,-10.496505 h -4.246374 c -1.16775,0 -2.12319,0.955434 -2.12319,2.123178 0,1.167757 0.95066,2.123187 2.12319,2.123187 h 4.246374 c 1.167744,0 2.123178,-0.95543 2.123178,-2.123187 0,-1.167744 -0.955434,-2.123178 -2.123178,-2.123178 z"
       id="path824-9"
       style="fill:#744868;fill-opacity:1;stroke:#333333;stroke-width:2.5077;stroke-miterlimit:4;stroke-dasharray:none;stroke-opacity:1" />
  </g>
</svg>
