<?xml version="1.0" encoding="UTF-8" standalone="no"?>
<!-- Created with Inkscape (http://www.inkscape.org/) -->

<svg
   width="512.00098"
   height="512.00098"
   viewBox="0 0 135.46692 135.46693"
   version="1.1"
   id="svg5"
   inkscape:version="1.1 (c68e22c387, 2021-05-23)"
   sodipodi:docname="OrdoOfficeExcel_icon.svg"
   xmlns:inkscape="http://www.inkscape.org/namespaces/inkscape"
   xmlns:sodipodi="http://sodipodi.sourceforge.net/DTD/sodipodi-0.dtd"
   xmlns="http://www.w3.org/2000/svg"
   xmlns:svg="http://www.w3.org/2000/svg">
  <sodipodi:namedview
     id="namedview7"
     pagecolor="#ffffff"
     bordercolor="#666666"
     borderopacity="1.0"
     inkscape:pageshadow="2"
     inkscape:pageopacity="0.0"
     inkscape:pagecheckerboard="0"
     inkscape:document-units="mm"
     showgrid="false"
     units="px"
     width="512.001px"
     inkscape:zoom="1"
     inkscape:cx="385"
     inkscape:cy="233.5"
     inkscape:window-width="1920"
     inkscape:window-height="1017"
     inkscape:window-x="1912"
     inkscape:window-y="-4"
     inkscape:window-maximized="1"
     inkscape:current-layer="layer1" />
  <defs
     id="defs2" />
  <g
     inkscape:label="Livello 1"
     inkscape:groupmode="layer"
     id="layer1">
    <path
       d="m 135.4668,38.100131 v 76.199999 c 0,7.01146 -5.68855,12.7 -12.7,12.7 H 12.700128 c -7.0114605,0 -12.70000047559,-5.68854 -12.70000047559,-12.7 V 21.166798 C 1.2752441e-4,14.155339 5.6886675,8.4667975 12.700128,8.4667975 h 42.33333 L 71.966798,25.400131 H 122.7668 c 7.01145,0 12.7,5.688542 12.7,12.7 z"
       id="path823"
       style="fill:#333333;fill-opacity:1;stroke-width:0.264583" />
    <path
       d="m 6.2210017,42.962595 c 1.128337,-2.382189 3.527579,-3.89983 6.1638443,-3.89983 h 73.665359 c 2.643081,0 5.030392,1.517641 6.155835,3.89983 1.142497,2.382187 0.784397,5.200909 -1.023136,7.240351 L 60.13092,88.326472 v 21.673308 c 0,2.06331 -1.159549,3.95611 -3.018237,4.87692 -1.841635,0.92082 -4.058413,0.73324 -5.712475,-0.51157 l -10.913385,-8.18504 c -1.381229,-1.02312 -2.18268,-2.64308 -2.18268,-4.36535 V 88.326472 L 7.1058367,50.202946 c -1.668897,-2.039442 -2.013352,-4.858164 -0.884668,-7.240351 z"
       id="path833"
       style="fill:#ffffff;fill-opacity:1;stroke-width:0.170521" />
    <path
       d="M 109.53766,71.740731 V 55.59333 H 87.334963 c -3.34428,0 -6.05528,2.710998 -6.05528,6.055276 v 52.479054 c 0,3.34301 2.711,6.05528 6.05528,6.05528 h 36.331677 c 3.34427,0 6.05528,-2.711 6.05528,-6.05528 V 75.777581 h -16.03387 c -2.34642,0 -4.15039,-1.803966 -4.15039,-4.03685 z m 6.06789,17.207074 -6.06789,10.041669 6.18016,10.042926 c 0.83387,1.34856 -0.1375,3.07683 -1.71439,3.07683 h -3.33419 c -0.70102,0 -1.35108,-0.36369 -1.71944,-0.96088 l -3.44899,-5.59899 -3.44522,5.5986 c -0.36458,0.59544 -1.02056,0.96127 -1.71441,0.96127 h -3.343022 c -1.579405,0 -2.546995,-1.73206 -1.719435,-3.07683 L 101.46394,98.989474 95.282503,88.947805 c -0.8326,-1.34982 0.13877,-3.078096 1.715655,-3.078096 h 3.334192 c 0.70104,0 1.35109,0.363693 1.71946,0.96039 l 3.449,5.59949 3.4452,-5.599867 c 0.36458,-0.594174 1.02057,-0.960013 1.7144,-0.960013 h 3.33419 c 1.58572,0 2.55709,1.728276 1.61095,3.078096 z M 113.57451,55.59333 v 16.147401 h 16.14741 z"
       id="path824-1"
       style="fill:#20744b;fill-opacity:1;stroke:#333333;stroke-width:4.47154;stroke-miterlimit:4;stroke-dasharray:none;stroke-opacity:1;paint-order:stroke fill markers" />
  </g>
</svg>
