<?xml version="1.0" encoding="UTF-8" standalone="no"?>
<!-- Created with Inkscape (http://www.inkscape.org/) -->

<svg
   width="512.00098"
   height="512.00098"
   viewBox="0 0 135.46692 135.46693"
   version="1.1"
   id="svg5"
   inkscape:version="1.1 (c68e22c387, 2021-05-23)"
   sodipodi:docname="OrdoCleaning.svg"
   xmlns:inkscape="http://www.inkscape.org/namespaces/inkscape"
   xmlns:sodipodi="http://sodipodi.sourceforge.net/DTD/sodipodi-0.dtd"
   xmlns="http://www.w3.org/2000/svg"
   xmlns:svg="http://www.w3.org/2000/svg">
  <sodipodi:namedview
     id="namedview7"
     pagecolor="#ffffff"
     bordercolor="#666666"
     borderopacity="1.0"
     inkscape:pageshadow="2"
     inkscape:pageopacity="0.0"
     inkscape:pagecheckerboard="0"
     inkscape:document-units="mm"
     showgrid="false"
     units="px"
     width="512.001px"
     inkscape:zoom="1"
     inkscape:cx="385"
     inkscape:cy="233.5"
     inkscape:window-width="1920"
     inkscape:window-height="1017"
     inkscape:window-x="1912"
     inkscape:window-y="-4"
     inkscape:window-maximized="1"
     inkscape:current-layer="layer1" />
  <defs
     id="defs2" />
  <g
     inkscape:label="Livello 1"
     inkscape:groupmode="layer"
     id="layer1">
    <path
       id="path823"
       style="fill:#ffffff;fill-opacity:1;stroke-width:0.999999"
       d="M 48 32 C 21.499992 32 3.8959721e-15 53.499997 0 80 L 0 432 C 4.7369516e-15 458.50001 21.499992 480 48 480 L 464 480 C 490.49997 480 512 458.50001 512 432 L 512 144 C 512 117.5 490.49997 96 464 96 L 272 96 L 208 32 L 48 32 z M 116.80859 147.63867 L 395.22852 147.63867 C 405.21811 147.63867 414.24246 153.37536 418.49609 162.37891 C 422.8142 171.38245 421.46052 182.03601 414.62891 189.74414 L 297.26562 333.83203 L 297.26562 415.74805 C 297.26562 423.54638 292.88434 430.69946 285.85938 434.17969 C 278.89886 437.65995 270.51915 436.95089 264.26758 432.24609 L 223.02148 401.31055 C 217.80109 397.44364 214.77148 391.32187 214.77148 384.8125 L 214.77148 333.83203 L 96.857422 189.74414 C 90.54978 182.03601 89.24778 171.38245 93.513672 162.37891 L 93.511719 162.37891 C 97.7763 153.37536 106.84476 147.63867 116.80859 147.63867 z "
       transform="scale(0.26458333)" />
  </g>
</svg>
